<?xml version="1.0" encoding="iso-8859-1"?>
<!-- Generator: Adobe Illustrator 19.0.0, SVG Export Plug-In . SVG Version: 6.00 Build 0)  -->
<svg version="1.1" id="Layer_1" xmlns="http://www.w3.org/2000/svg" xmlns:xlink="http://www.w3.org/1999/xlink" x="0px" y="0px"
	 viewBox="0 0 511.999 511.999" style="enable-background:new 0 0 511.999 511.999;" xml:space="preserve">
<g>
	<g>
		<g>
			<polygon fill="#fff" points="285.33,320.01 285.33,303.983 170.657,303.983 170.657,461.323 186.684,461.323 186.684,362.675 
				253.333,362.675 253.333,346.648 186.684,346.648 186.684,320.01 			"/>
			<rect fill="#fff" x="120.009" y="426.645" width="21.332" height="16.027"/>
			<rect fill="#fff" x="269.336" y="346.65" width="21.333" height="16.027"/>
			<rect fill="#fff" x="418.653" y="218.66" width="21.333" height="16.027"/>
			<path fill="#fff" d="M448.004,133.325h-37.331v-29.317h-16.027v29.317h-37.331v42.666h-37.331v226.668h16.027V234.682h66.649v-16.027h-66.649
				v-26.638h133.297v266.625H232.001v16.027h237.307v21.304H37.359V442.67h66.649v-16.027H37.359v-26.638h98.646v-16.027H21.332
				v128.02h464.004V175.991h-37.332V133.325z M431.977,175.991h-58.636v-26.639h58.636V175.991z"/>
			<rect fill="#fff" x="375.99" y="31.997" width="53.331" height="16.027"/>
			<path fill="#fff" d="M314.651,0v45.344h16.027V16.027h15.97v50.649c0,10.301,8.38,18.68,18.68,18.68h74.663c10.3,0,18.679-8.38,18.679-18.68
				V16.027h15.971v29.317h16.027V0H314.651z M442.644,66.676h-0.001c0,1.438-1.215,2.653-2.652,2.653h-74.663
				c-1.438,0-2.653-1.216-2.653-2.653V16.027h79.969V66.676z"/>
			<polygon fill="#fff" points="45.678,349.662 290.651,104.688 290.651,144.005 306.678,144.005 306.678,77.328 234.668,77.328 234.668,93.355 
				279.317,93.355 34.344,338.328 			"/>
		</g>
	</g>
</g>
<g>
</g>
<g>
</g>
<g>
</g>
<g>
</g>
<g>
</g>
<g>
</g>
<g>
</g>
<g>
</g>
<g>
</g>
<g>
</g>
<g>
</g>
<g>
</g>
<g>
</g>
<g>
</g>
<g>
</g>
</svg>
