<?xml version="1.0" encoding="iso-8859-1"?>
<!-- Generator: Adobe Illustrator 19.0.0, SVG Export Plug-In . SVG Version: 6.00 Build 0)  -->
<svg version="1.1" id="Layer_1" xmlns="http://www.w3.org/2000/svg" xmlns:xlink="http://www.w3.org/1999/xlink" x="0px" y="0px"
	 viewBox="0 0 512 512" style="enable-background:new 0 0 512 512;" xml:space="preserve">
<g>
	<g>
		<g>
			<path fill="#fff" d="M465.735,135.711h24.675c1.672,0,3.084,1.413,3.084,3.084H512V49.349h-68.075c0.144-1.007,0.22-2.037,0.22-3.084V21.59
				c0-11.904-9.686-21.59-21.59-21.59h-61.687c-11.904,0-21.59,9.686-21.59,21.59v24.675c0,1.047,0.075,2.078,0.22,3.084H221.854
				c0.144-1.007,0.22-2.037,0.22-3.084V21.59C222.072,9.686,212.386,0,200.482,0h-61.687c-11.904,0-21.59,9.686-21.59,21.59v24.675
				c0,1.047,0.075,2.078,0.22,3.084H83.276v18.506h55.519V49.349c-1.672,0-3.084-1.413-3.084-3.084V21.59
				c0-1.672,1.413-3.084,3.084-3.084h61.687c1.672,0,3.084,1.413,3.084,3.084v24.675c0,1.672-1.413,3.084-3.084,3.084v18.506h70.94
				v49.569c-1.007-0.144-2.037-0.22-3.084-0.22h-24.675c-11.904,0-21.59,9.686-21.59,21.59v61.687c0,11.904,9.686,21.59,21.59,21.59
				h24.675c1.047,0,2.078-0.075,3.084-0.22v49.569h-49.569c0.144-1.007,0.22-2.037,0.22-3.084v-24.675
				c0-11.904-9.686-21.59-21.59-21.59h-61.687c-11.904,0-21.59,9.686-21.59,21.59v24.675c0,1.047,0.075,2.078,0.22,3.084H67.855
				v-70.94H49.349c0,1.672-1.413,3.084-3.084,3.084H21.59c-1.672,0-3.084-1.413-3.084-3.084v-61.687
				c0-1.672,1.413-3.084,3.084-3.084h24.675c1.672,0,3.084,1.413,3.084,3.084h18.506V83.276H49.349v34.149
				c-1.007-0.144-2.037-0.22-3.084-0.22H21.59c-11.904,0-21.59,9.686-21.59,21.59v61.687c0,11.904,9.686,21.59,21.59,21.59h24.675
				c1.047,0,2.078-0.075,3.084-0.22v117.643c-1.007-0.144-2.037-0.22-3.084-0.22H21.59C9.686,339.277,0,348.963,0,360.867v61.687
				c0,11.904,9.686,21.59,21.59,21.59h24.675c1.047,0,2.078-0.075,3.084-0.22V512h89.446v-18.506c-1.672,0-3.084-1.413-3.084-3.084
				v-24.675c0-1.672,1.413-3.084,3.084-3.084h61.687c1.672,0,3.084,1.413,3.084,3.084v24.675c0,1.672-1.413,3.084-3.084,3.084V512
				h160.386v-18.506c-1.672,0-3.084-1.413-3.084-3.084v-24.675c0-1.672,1.413-3.084,3.084-3.084h61.687
				c1.672,0,3.084,1.413,3.084,3.084v24.675c0,1.672-1.413,3.084-3.084,3.084V512h55.519v-18.506h-34.176
				c0.146-1.01,0.247-2.034,0.247-3.084v-24.675c0-11.904-9.686-21.59-21.59-21.59h-61.687c-11.904,0-21.59,9.686-21.59,21.59
				v24.675c0,1.05,0.101,2.074,0.247,3.084h-49.596v-70.94h-18.506c0,1.672-1.413,3.084-3.084,3.084h-24.675
				c-1.672,0-3.084-1.413-3.084-3.084v-61.687c0-1.672,1.413-3.084,3.084-3.084h24.675c1.672,0,3.084,1.413,3.084,3.084h18.506
				v-70.94h70.94v-18.506c-1.672,0-3.084-1.413-3.084-3.084v-24.675c0-1.672,1.413-3.084,3.084-3.084h61.687
				c1.672,0,3.084,1.413,3.084,3.084v24.675c0,1.672-1.413,3.084-3.084,3.084v18.506h70.94v49.596
				c-1.01-0.146-2.034-0.247-3.084-0.247h-24.675c-11.904,0-21.59,9.686-21.59,21.59v61.687c0,11.904,9.686,21.59,21.59,21.59
				h24.675c1.05,0,2.074-0.101,3.084-0.247v34.176H512v-55.519h-18.506c0,1.672-1.413,3.084-3.084,3.084h-24.675
				c-1.672,0-3.084-1.413-3.084-3.084v-61.687c0-1.672,1.413-3.084,3.084-3.084h24.675c1.672,0,3.084,1.413,3.084,3.084H512V200.482
				h-18.506c0,1.672-1.413,3.084-3.084,3.084h-24.675c-1.672,0-3.084-1.413-3.084-3.084v-61.687
				C462.651,137.123,464.063,135.711,465.735,135.711z M271.422,339.524c-1.01-0.146-2.034-0.247-3.084-0.247h-24.675
				c-11.904,0-21.59,9.686-21.59,21.59v61.687c0,11.904,9.686,21.59,21.59,21.59h24.675c1.05,0,2.074-0.101,3.084-0.247v49.596
				h-49.596c0.146-1.01,0.247-2.034,0.247-3.084v-24.675c0-11.904-9.686-21.59-21.59-21.59h-61.687
				c-11.904,0-21.59,9.686-21.59,21.59v24.675c0,1.05,0.101,2.074,0.247,3.084H67.855v-70.94H49.349
				c0,1.672-1.413,3.084-3.084,3.084H21.59c-1.672,0-3.084-1.413-3.084-3.084v-61.687c0-1.672,1.413-3.084,3.084-3.084h24.675
				c1.672,0,3.084,1.413,3.084,3.084h18.506v-70.94h70.94v-18.506c-1.672,0-3.084-1.413-3.084-3.084v-24.675
				c0-1.672,1.413-3.084,3.084-3.084h61.687c1.672,0,3.084,1.413,3.084,3.084v24.675c0,1.672-1.413,3.084-3.084,3.084v18.506h70.94
				V339.524z M465.735,222.072h24.675c1.05,0,2.074-0.101,3.084-0.247v49.596h-49.569c0.144-1.007,0.22-2.037,0.22-3.084v-24.675
				c0-11.904-9.686-21.59-21.59-21.59h-61.687c-11.904,0-21.59,9.686-21.59,21.59v24.675c0,1.047,0.075,2.078,0.22,3.084h-49.569
				v-70.94h-18.506c0,1.672-1.413,3.084-3.084,3.084h-24.675c-1.672,0-3.084-1.413-3.084-3.084v-61.687
				c0-1.672,1.413-3.084,3.084-3.084h24.675c1.672,0,3.084,1.413,3.084,3.084h18.506v-70.94h70.94V49.349
				c-1.672,0-3.084-1.413-3.084-3.084V21.59c0-1.672,1.413-3.084,3.084-3.084h61.687c1.672,0,3.084,1.413,3.084,3.084v24.675
				c0,1.672-1.413,3.084-3.084,3.084v18.506h70.94v49.596c-1.01-0.146-2.034-0.247-3.084-0.247h-24.675
				c-11.904,0-21.59,9.686-21.59,21.59v61.687C444.145,212.386,453.831,222.072,465.735,222.072z"/>
			<rect fill="#fff" x="101.783" y="160.386" width="24.675" height="18.506"/>
			<rect fill="#fff" x="138.795" y="160.386" width="24.675" height="18.506"/>
			<rect fill="#fff" x="175.807" y="160.386" width="24.675" height="18.506"/>
			<rect fill="#fff" x="323.855" y="160.386" width="24.675" height="18.506"/>
			<rect fill="#fff" x="360.867" y="160.386" width="24.675" height="18.506"/>
			<rect fill="#fff" x="397.88" y="160.386" width="24.675" height="18.506"/>
			<rect fill="#fff" x="323.855" y="382.458" width="24.675" height="18.506"/>
			<rect fill="#fff" x="360.867" y="382.458" width="24.675" height="18.506"/>
			<rect fill="#fff" x="397.88" y="382.458" width="24.675" height="18.506"/>
			<rect fill="#fff" x="101.783" y="382.458" width="24.675" height="18.506"/>
			<rect fill="#fff" x="138.795" y="382.458" width="24.675" height="18.506"/>
			<rect fill="#fff" x="175.807" y="382.458" width="24.675" height="18.506"/>
			<polygon fill="#fff" points="126.458,86.361 86.361,86.361 86.361,132.627 104.867,132.627 104.867,104.867 126.458,104.867 			"/>
			<polygon fill="#fff" points="308.434,132.627 326.94,132.627 326.94,104.867 348.53,104.867 348.53,86.361 308.434,86.361 			"/>
			<polygon fill="#fff" points="86.361,354.699 104.867,354.699 104.867,326.94 126.458,326.94 126.458,308.434 86.361,308.434 			"/>
			<polygon fill="#fff" points="348.53,308.434 308.434,308.434 308.434,354.699 326.94,354.699 326.94,326.94 348.53,326.94 			"/>
		</g>
	</g>
</g>
<g>
</g>
<g>
</g>
<g>
</g>
<g>
</g>
<g>
</g>
<g>
</g>
<g>
</g>
<g>
</g>
<g>
</g>
<g>
</g>
<g>
</g>
<g>
</g>
<g>
</g>
<g>
</g>
<g>
</g>
</svg>
