<?xml version="1.0" encoding="iso-8859-1"?>
<!-- Generator: Adobe Illustrator 19.0.0, SVG Export Plug-In . SVG Version: 6.00 Build 0)  -->
<svg version="1.1" id="Layer_1" xmlns="http://www.w3.org/2000/svg" xmlns:xlink="http://www.w3.org/1999/xlink" x="0px" y="0px"
	 viewBox="0 0 512 512" style="enable-background:new 0 0 512 512;" xml:space="preserve">
<g>
	<g>
		<g>
			<path fill="#fff" d="M406.433,306.144h29.031c10.186,0,18.474-8.288,18.474-18.474v-73.897c0-10.186-8.288-18.474-18.474-18.474h-29.031
				v-95.01H295.588v44.866c0,1.43-1.209,2.639-2.639,2.639h-73.897c-1.43,0-2.639-1.209-2.639-2.639v-44.866H105.567v110.845h44.866
				c1.43,0,2.639,1.209,2.639,2.639v73.897c0,1.43-1.209,2.639-2.639,2.639h-44.866v110.845h95.01v29.031
				c0,10.186,8.288,18.474,18.474,18.474h73.897c10.186,0,18.474-8.288,18.474-18.474v-29.031h95.01V306.144z M390.598,385.32
				h-95.01v44.866c0,1.43-1.209,2.639-2.639,2.639h-73.897c-1.43,0-2.639-1.209-2.639-2.639V385.32h-47.505v-44.866h-15.835v44.866
				h-31.67v-79.175h29.031c10.186,0,18.474-8.288,18.474-18.474v-73.897c0-10.186-8.288-18.474-18.474-18.474h-29.031v-31.67h44.866
				v-15.835h-44.866v-31.67h79.175v29.031c0,10.186,8.288,18.474,18.474,18.474h73.897c10.186,0,18.474-8.288,18.474-18.474v-29.031
				h79.175v31.67h-44.866v15.835h44.866v87.093h15.835v-39.588h29.031c1.43,0,2.639,1.209,2.639,2.639v73.897
				c0,1.43-1.209,2.639-2.639,2.639h-44.866V385.32z"/>
			<polygon fill="#fff" points="353.649,348.371 271.835,348.371 271.835,364.206 369.485,364.206 369.485,282.392 353.649,282.392 			"/>
			<rect fill="#fff" x="234.887" y="348.371" width="21.113" height="15.835"/>
			<path fill="#fff" d="M15.835,256c0-46.458,13.279-91.529,38.403-130.34c24.48-37.817,58.912-67.925,99.57-87.069l-6.745-14.326
				c-43.335,20.404-80.03,52.49-106.118,92.79C14.159,158.435,0,206.482,0,256c0,68.386,26.627,132.676,74.975,181.024
				C123.324,485.373,187.614,512,256,512v-15.835c-64.156,0-124.469-24.98-169.828-70.337C40.814,380.47,15.835,320.157,15.835,256z
				"/>
			<path fill="#fff" d="M437.025,74.976C388.676,26.627,324.386,0,256,0v15.835c64.156,0,124.469,24.98,169.828,70.337
				c45.358,45.358,70.337,105.67,70.337,169.828c0,49.391-14.87,96.829-43.003,137.186c-27.503,39.454-65.643,69.466-110.294,86.794
				l5.728,14.763c47.597-18.47,88.247-50.456,117.556-92.502C496.146,359.214,512,308.645,512,256
				C512,187.614,485.373,123.324,437.025,74.976z"/>
		</g>
	</g>
</g>
<g>
</g>
<g>
</g>
<g>
</g>
<g>
</g>
<g>
</g>
<g>
</g>
<g>
</g>
<g>
</g>
<g>
</g>
<g>
</g>
<g>
</g>
<g>
</g>
<g>
</g>
<g>
</g>
<g>
</g>
</svg>
