<?xml version="1.0" encoding="iso-8859-1"?>
<!-- Generator: Adobe Illustrator 19.0.0, SVG Export Plug-In . SVG Version: 6.00 Build 0)  -->
<svg version="1.1" id="Layer_1" xmlns="http://www.w3.org/2000/svg" xmlns:xlink="http://www.w3.org/1999/xlink" x="0px" y="0px"
	 viewBox="0 0 512 512" style="enable-background:new 0 0 512 512;" xml:space="preserve">
<g>
	<g>
		<g>
			<rect fill="#fff" x="292.948" y="58.062" width="21.113" height="15.835"/>
			<rect fill="#fff" x="285.031" y="224.33" width="15.835" height="116.124"/>
			<rect fill="#fff" x="285.031" y="356.289" width="15.835" height="21.113"/>
			<path fill="#fff" d="M395.876,496.165v-34.309c0-10.186-8.288-18.474-18.474-18.474h-13.196v-42.227h-26.392V158.351h47.505v-58.062h-36.948
				V18.474C348.371,8.288,340.083,0,329.897,0H182.103c-10.186,0-18.474,8.288-18.474,18.474v81.814H126.68v58.062h47.505v242.804
				h-26.392v42.227h-13.196c-10.186,0-18.474,8.288-18.474,18.474v34.309H39.588V512h432.825v-15.835H395.876z M142.515,142.515
				v-26.392h81.814v-15.835h-44.866V73.897h97.649V58.062h-97.649V18.474c0-1.43,1.209-2.639,2.639-2.639h147.794
				c1.43,0,2.639,1.209,2.639,2.639v81.814H256v15.835h113.485v26.392H142.515z M380.041,496.165H131.959v-34.309
				c0-1.43,1.209-2.639,2.639-2.639h195.299v-15.835H163.629V416.99h113.485v-15.835h-87.093V158.351h131.959v26.392H213.773v15.835
				h108.206v200.577h-23.753v15.835h50.144v42.227h29.031c1.43,0,2.639,1.209,2.639,2.639V496.165z"/>
		</g>
	</g>
</g>
<g>
</g>
<g>
</g>
<g>
</g>
<g>
</g>
<g>
</g>
<g>
</g>
<g>
</g>
<g>
</g>
<g>
</g>
<g>
</g>
<g>
</g>
<g>
</g>
<g>
</g>
<g>
</g>
<g>
</g>
</svg>
