<?xml version="1.0" encoding="iso-8859-1"?>
<!-- Generator: Adobe Illustrator 19.0.0, SVG Export Plug-In . SVG Version: 6.00 Build 0)  -->
<svg version="1.1" id="Layer_1" xmlns="http://www.w3.org/2000/svg" xmlns:xlink="http://www.w3.org/1999/xlink" x="0px" y="0px"
	 viewBox="0 0 512 512" style="enable-background:new 0 0 512 512;" xml:space="preserve">
<g>
	<g>
		<g>
			<path d="M8.533,278.769h22.754V512h449.426V278.77h22.754V113.772H8.533V278.769z M25.628,130.867h460.743v130.808H347.017
				v17.095h116.601v216.136H48.383v-28.413h304.323v-17.095H48.383V278.77h116.601v-17.095H25.628V130.867z"/>
			<path d="M179.19,301.523H332.81v-85.357H179.19V301.523z M196.285,233.261h119.43v51.167h-119.43V233.261z"/>
			<rect x="216.186" y="250.296" width="79.64" height="17.095"/>
			<rect x="386.841" y="449.399" width="51.197" height="17.095"/>
			<path d="M167.813,93.877h17.095V62.605h142.184v31.272h17.095V62.605h22.755V0H145.058v62.605h22.755V93.877z M162.154,45.51
				V17.095h187.693V45.51H162.154z"/>
			<rect x="176.365" y="170.656" width="159.282" height="17.095"/>
			<rect x="358.395" y="170.656" width="22.754" height="17.095"/>
			<rect x="130.847" y="170.656" width="22.754" height="17.095"/>
			<rect x="88.177" y="298.664" width="17.095" height="102.389"/>
			<rect x="406.729" y="298.664" width="17.095" height="102.389"/>
		</g>
	</g>
</g>
<g>
</g>
<g>
</g>
<g>
</g>
<g>
</g>
<g>
</g>
<g>
</g>
<g>
</g>
<g>
</g>
<g>
</g>
<g>
</g>
<g>
</g>
<g>
</g>
<g>
</g>
<g>
</g>
<g>
</g>
</svg>
