<?xml version="1.0" encoding="iso-8859-1"?>
<!-- Generator: Adobe Illustrator 19.0.0, SVG Export Plug-In . SVG Version: 6.00 Build 0)  -->
<svg version="1.1" id="Layer_1" xmlns="http://www.w3.org/2000/svg" xmlns:xlink="http://www.w3.org/1999/xlink" x="0px" y="0px"
	 viewBox="0 0 512 512" style="enable-background:new 0 0 512 512;" xml:space="preserve">
<g>
	<g>
		<g>
			<path fill="#fff" d="M246.58,141.471h59.662v-15.868H246.58c-0.424,0-10.515,0.03-20.765,2.592c-9.281,2.32-24.85,8.546-24.85,24.181h15.868
				C216.833,144.718,236.213,141.495,246.58,141.471z"/>
			<rect fill="#fff" x="200.96" y="158.657" width="15.868" height="12.56"/>
			<rect fill="#fff" x="303.096" y="373.665" width="43.961" height="15.868"/>
			<rect fill="#fff" x="164.94" y="373.665" width="43.961" height="15.868"/>
			<polygon fill="#fff" points="268.56,232.365 263.934,232.365 263.934,221.459 248.066,221.459 248.066,248.233 268.56,248.233 			"/>
			<path fill="#fff" d="M458.566,338.187c-0.703-0.251-1.476-0.526-2.326-0.784c-5.656-3.013-14.445-8.206-19.036-12.02v-9.011
				c19.874-12.391,32.029-35.841,32.029-62.444V144.443h-66.717c-52.659,0-65.513,27.594-66.034,28.768l-0.682,1.537v79.179
				c0,26.612,12.163,50.07,32.029,62.447v8.996c-4.483,3.7-13.147,8.878-19.144,12.056c-0.784,0.248-1.526,0.512-2.206,0.754
				c-0.354,0.12-0.683,0.25-1.03,0.375c-7.052-3.941-15.093-7.456-23.991-10.464c-1.025-0.381-1.923-0.693-2.765-0.959
				c-6.879-3.635-17.889-10.126-23.357-14.824V300.32c23.361-14.212,37.681-41.541,37.681-72.58V100.482H256
				c-60.977,0-75.734,31.626-76.331,32.972l-0.683,1.538v92.747c0,31.049,14.33,58.384,37.681,72.582v11.985
				c-5.464,4.692-16.477,11.186-23.359,14.826c-0.848,0.268-1.755,0.583-2.791,0.969c-8.825,3.052-16.803,6.578-23.815,10.502
				c-0.392-0.142-0.778-0.288-1.18-0.422c-0.679-0.242-1.422-0.507-2.208-0.755c-5.993-3.175-14.654-8.351-19.142-12.055v-9
				c19.874-12.391,32.029-35.842,32.029-62.444V144.443h-66.716c-52.659,0-65.513,27.594-66.033,28.768l-0.682,1.537v79.179
				c0,26.611,12.163,50.069,32.029,62.447v9.008c-4.592,3.815-13.38,9.009-19.036,12.02c-0.873,0.264-1.648,0.542-2.304,0.775
				C1.204,356.171,0.025,388.689,0.001,390.065L0,411.518h512v-21.363C511.99,388.768,511.167,356,458.566,338.187z
				 M351.668,253.928v-75.399c2.8-4.128,15.009-18.217,50.848-18.217h50.849v55.936c-28.007-2.425-48.753-16.752-48.966-16.902
				l-12.518-8.859v15.03c-1.169,1.697-8.451,6.243-30.215,9.288l2.198,15.714c13.772-1.926,30.86-5.344,39.057-13.543
				c9.753,5.352,27.995,13.561,50.445,15.202v21.749c0,22.506-10.626,41.967-27.756,50.8c-6.87,3.573-14.64,5.385-23.093,5.385
				c-8.452,0-16.222-1.812-23.117-5.398C362.293,295.895,351.668,276.433,351.668,253.928z M421.336,323.401v2.183
				c-2.105,1.98-5.878,5.055-10.69,6.943c-5.491,2.178-10.74,2.188-16.287-0.011c-4.798-1.882-8.569-4.959-10.663-6.93v-2.188
				c5.953,1.704,12.24,2.583,18.819,2.583C409.096,325.982,415.386,325.103,421.336,323.401z M194.852,227.739v-88.992
				c3.104-4.729,17.645-22.398,61.148-22.398h61.148v68.613c-34.086-2.486-59.441-20.036-59.702-20.22l-12.519-8.881v15.345
				c-0.386,1.602-8.335,8.397-40.156,12.393l1.976,15.744c26.047-3.27,42.264-8.688,49.541-16.723
				c11.256,6.292,33.42,16.534,60.859,18.26v26.858c0,26.938-12.793,50.273-33.411,60.913c-8.303,4.322-17.634,6.514-27.737,6.514
				c-10.102,0-19.435-2.192-27.763-6.528C207.645,278.014,194.852,254.678,194.852,227.739z M279.468,307.522v4.988h-0.001
				c-2.449,2.384-7.228,6.457-13.434,8.919c-3.334,1.345-6.617,1.999-10.033,1.999c-3.416,0-6.698-0.654-10.075-2.015
				c-6.167-2.447-10.942-6.521-13.392-8.905v-4.987c7.392,2.33,15.243,3.514,23.467,3.514
				C264.228,311.035,272.08,309.85,279.468,307.522z M58.636,253.928V178.54c2.903-4.33,15.016-18.229,50.848-18.229h50.848v55.936
				c-28.006-2.425-48.752-16.752-48.965-16.902l-12.518-8.859v15.03c-1.22,1.78-8.965,6.537-32.273,9.566l0.005,0.046l-0.711,0.078
				l1.727,7.775v7.903h0.513l0.509-0.067c14.603-1.898,32.753-5.328,41.266-13.842c9.752,5.352,27.994,13.562,50.446,15.203v21.749
				c0,22.506-10.626,41.967-27.755,50.8c-6.871,3.573-14.641,5.386-23.093,5.386c-8.452,0-16.222-1.812-23.117-5.398
				C69.262,295.895,58.636,276.433,58.636,253.928z M128.305,323.401v2.183h-0.001c-2.105,1.98-5.878,5.057-10.69,6.943
				c-5.492,2.178-10.741,2.188-16.287-0.011c-4.798-1.882-8.569-4.959-10.663-6.93v-2.188c5.954,1.704,12.241,2.583,18.82,2.583
				C116.065,325.982,122.354,325.103,128.305,323.401z M15.868,395.649v-5.324c0.056-0.861,2.154-23.162,42.841-37.173
				c0.778-0.277,16.222-7.99,23.755-13.638c1.13,0.929,2.418,1.902,3.84,2.868l-7.453,9.295L99.5,395.649H15.868z M97.412,353.876
				l3.847-4.808c5.468,1.257,10.991,1.256,16.441,0.003l3.854,4.805l-12.071,25.706L97.412,353.876z M128.744,395.65h-9.275
				l20.649-43.972l-7.443-9.305c1.419-0.964,2.705-1.935,3.833-2.861c4.845,3.626,10.726,7.134,14.977,9.528
				c-17.376,14.622-22.599,30.568-22.74,38.706L128.744,395.65z M211.036,395.65h-66.425v-7.654
				c0.044-0.767,1.462-18.147,26.606-33.665c6.896-4.225,15.162-8.014,24.571-11.262c0,0,19.317-9.496,28.539-16.584
				c1.792,1.534,3.97,3.216,6.47,4.841l-9.201,11.499l5.782,12.287l-12.702-13.489l-11.552,10.878l40.632,43.149H211.036z
				 M240.165,345.02l5.614-7.01c6.755,1.686,13.73,1.681,20.45,0.001l5.607,7.009L256,378.671L240.165,345.02z M367.389,395.649
				h-66.424h-29.579l40.631-43.148l-11.552-10.878l-18.979,20.154l8.919-18.952l-9.209-11.499c2.502-1.626,4.682-3.307,6.474-4.842
				c9.222,7.089,28.595,16.602,28.595,16.602c9.436,3.183,17.727,6.944,24.643,11.18c25.118,15.385,26.42,32.498,26.48,33.735
				V395.649z M383.257,395.649v-7.812c-0.048-8.203-5.154-24.247-22.591-38.882c4.239-2.392,10.039-5.862,14.826-9.443
				c1.131,0.93,2.42,1.905,3.843,2.871l-7.453,9.295l20.648,43.972H383.257z M390.444,353.876l3.847-4.809
				c5.469,1.258,10.991,1.256,16.441,0.003l3.855,4.806l-12.072,25.705L390.444,353.876z M496.132,395.65h-83.632l20.649-43.972
				l-7.444-9.305c1.416-0.963,2.702-1.934,3.829-2.858c7.533,5.648,23.883,13.682,23.883,13.682
				c40.617,13.733,42.624,35.609,42.714,37.15V395.65z"/>
			<rect fill="#fff" x="442.584" y="376.934" width="37.427" height="15.868"/>
			<polygon fill="#fff" points="413.192,256.67 410.449,256.67 410.449,248.589 394.582,248.589 394.582,272.537 413.192,272.537 			"/>
			<rect fill="#fff" x="31.989" y="375.876" width="37.427" height="15.868"/>
			<polygon fill="#fff" points="120.16,256.67 117.418,256.67 117.418,248.589 101.551,248.589 101.551,272.537 120.16,272.537 			"/>
			<polygon fill="#fff" points="139.188,192.174 155.056,192.174 155.056,165.399 125.141,165.399 125.141,181.267 139.188,181.267 			"/>
			<polygon fill="#fff" points="431.215,192.174 447.083,192.174 447.083,165.399 417.168,165.399 417.168,181.267 431.215,181.267 			"/>
		</g>
	</g>
</g>
<g>
</g>
<g>
</g>
<g>
</g>
<g>
</g>
<g>
</g>
<g>
</g>
<g>
</g>
<g>
</g>
<g>
</g>
<g>
</g>
<g>
</g>
<g>
</g>
<g>
</g>
<g>
</g>
<g>
</g>
</svg>
