<?xml version="1.0" encoding="iso-8859-1"?>
<!-- Generator: Adobe Illustrator 19.0.0, SVG Export Plug-In . SVG Version: 6.00 Build 0)  -->
<svg version="1.1" id="Layer_1" xmlns="http://www.w3.org/2000/svg" xmlns:xlink="http://www.w3.org/1999/xlink" x="0px" y="0px"
	 viewBox="0 0 512 512" style="enable-background:new 0 0 512 512;" xml:space="preserve">
<g>
	<g>
		<g>
			<path d="M240.165,464.495C125.2,464.495,31.67,370.965,31.67,256c0-47.61,16.5-94.164,46.461-131.088
				c29.526-36.387,70.814-62.034,116.259-72.215l6.186-1.386V15.835h79.175v35.476l6.186,1.386
				c45.445,10.182,86.734,35.828,116.259,72.215C432.16,161.836,448.66,208.39,448.66,256c0,5.094-0.184,10.231-0.547,15.27
				l15.794,1.136c0.391-5.416,0.588-10.935,0.588-16.406c0-51.231-17.757-101.328-50.001-141.065
				c-30.415-37.484-72.448-64.375-118.906-76.209V0H184.742v38.726C138.284,50.56,96.251,77.452,65.836,114.935
				C33.592,154.672,15.835,204.769,15.835,256c0,123.696,100.634,224.33,224.33,224.33c3.626,0,7.302-0.088,10.926-0.26
				l-0.752-15.816C246.965,464.414,243.541,464.495,240.165,464.495z"/>
			<path d="M240.165,411.711c-85.86,0-155.711-69.852-155.711-155.711s69.852-155.711,155.711-155.711S395.876,170.14,395.876,256
				c0,5.024-0.242,10.101-0.717,15.089l15.764,1.503c0.523-5.485,0.789-11.068,0.789-16.592
				c-0.001-94.591-76.956-171.546-171.547-171.546S68.619,161.409,68.619,256s76.955,171.546,171.546,171.546
				c3.683,0,7.404-0.116,11.059-0.346l-0.994-15.804C246.904,411.605,243.519,411.711,240.165,411.711z"/>
			<rect x="213.773" y="31.67" width="52.784" height="15.835"/>
			<path d="M496.165,369.485h-25.33l17.946-17.946l-48.567-48.569l-17.946,17.947v-25.329h-68.619v25.329l-17.946-17.946
				l-48.567,48.568l17.946,17.946h-25.33v68.619h25.33l-17.946,17.946l48.567,48.568l17.946-17.946V512h68.619v-25.329
				l17.946,17.946l48.567-48.568l-17.946-17.946h25.33V369.485z M480.33,422.268h-29.143l-5.25,13.331l20.45,20.45l-26.173,26.174
				l-20.451-20.451l-13.331,5.247v29.145h-36.948V467.02l-13.331-5.247l-20.45,20.451l-26.173-26.174l20.452-20.45l-5.251-13.331
				h-29.143V385.32h29.143l5.25-13.331l-20.45-20.45l26.173-26.174l20.45,20.45l13.331-5.247v-29.145h36.948v29.145l13.331,5.247
				l20.451-20.449l26.173,26.173l-20.451,20.45l5.251,13.331h29.143V422.268z"/>
			<path d="M387.959,369.485c-18.918,0-34.309,15.391-34.309,34.309s15.392,34.309,34.309,34.309
				c18.918,0,34.309-15.391,34.309-34.309S406.876,369.485,387.959,369.485z M387.959,422.268c-10.186,0-18.474-8.288-18.474-18.474
				s8.288-18.474,18.474-18.474c10.186,0,18.474,8.288,18.474,18.474S398.145,422.268,387.959,422.268z"/>
			<rect x="232.247" y="118.763" width="15.835" height="26.392"/>
			<rect x="232.247" y="366.845" width="15.835" height="26.392"/>
			<rect x="102.928" y="248.082" width="26.392" height="15.835"/>
			<rect x="351.01" y="248.082" width="26.392" height="15.835"/>
			
				<rect x="142.517" y="161.906" transform="matrix(0.7071 -0.7071 0.7071 0.7071 -80.9785 158.166)" width="15.835" height="29.854"/>
			
				<rect x="314.972" y="168.906" transform="matrix(-0.7071 0.7071 -0.7071 -0.7071 688.2057 68.5822)" width="29.854" height="15.835"/>
			
				<rect x="142.498" y="320.242" transform="matrix(-0.7071 -0.7071 0.7071 -0.7071 19.7752 678.5291)" width="15.835" height="29.854"/>
			<polygon points="248.082,166.268 232.247,166.268 232.247,252.721 181.783,303.184 192.98,314.383 248.082,259.279 			"/>
		</g>
	</g>
</g>
<g>
</g>
<g>
</g>
<g>
</g>
<g>
</g>
<g>
</g>
<g>
</g>
<g>
</g>
<g>
</g>
<g>
</g>
<g>
</g>
<g>
</g>
<g>
</g>
<g>
</g>
<g>
</g>
<g>
</g>
</svg>
